# xmcd
#
# Track frame offsets: 
#        183
#        11450
#        26228
#        43195
#        56783
#        74723
#        91453
#        104910
#        117443
#        130580
#        143038
#
# Disc length: 2096 seconds
#
# Revision: 3
# Processed by: cddbd v1.5.2PL0 Copyright (c) Steve Scherf et al.
# Submitted via: ExactAudioCopy v1.0b3
#
DISCID=a7082e0b
DTITLE=Highway 101 - Bing Bang Boom
DYEAR=1991
DGENRE=Country
TTITLE0=Bing Bang Boom
TTITLE1=Wherever You Are
TTITLE2=The Blame
TTITLE3=Storm Of Love
TTITLE4=Till I Get It Right
TTITLE5=Restless Kind
TTITLE6=Honky Tonk Baby
TTITLE7=River Of Tears
TTITLE8=Baby, I'm Missing You
TTITLE9=Desperate
TTITLE10=Big City Bound
EXTD=YEAR: 1991
EXTT0=
EXTT1=
EXTT2=
EXTT3=
EXTT4=
EXTT5=
EXTT6=
EXTT7=
EXTT8=
EXTT9=
EXTT10=
PLAYORDER=
